<svg width="182" height="93" viewBox="0 0 182 93" fill="none" xmlns="http://www.w3.org/2000/svg">
<path d="M153.347 45.8664H167.883C167.883 45.8664 177.421 65.5359 179.299 73.9641H153.347V45.8664Z" fill="#E7816B"/>
<path fill-rule="evenodd" clip-rule="evenodd" d="M153.346 74.2314H179.299C179.38 74.232 179.458 74.1956 179.509 74.1326C179.558 74.068 179.577 73.9855 179.561 73.9059C177.695 65.5127 168.221 45.9478 168.122 45.7502C168.08 45.6566 167.986 45.5971 167.883 45.5991H153.346C153.198 45.5991 153.078 45.7188 153.078 45.8664V73.9641C153.078 74.1117 153.198 74.2314 153.346 74.2314ZM178.966 73.7025H153.632L153.615 46.128H167.714C168.589 47.9473 177.041 65.6231 178.966 73.7025Z" fill="#231F20"/>
<path d="M154.321 67.4773L165.666 72.4935C165.666 72.4935 155.691 29.481 136.208 10.0673C136.208 10.0673 129.401 15.2985 124.489 28.8707C123.241 32.3175 124.302 30.1494 124.221 30.7307L122.896 40.1063L154.321 67.4773Z" fill="#E7816B"/>
<path fill-rule="evenodd" clip-rule="evenodd" d="M165.562 72.7609C165.597 72.7663 165.632 72.7663 165.667 72.7609C165.731 72.7601 165.792 72.7375 165.842 72.6969C165.918 72.6334 165.952 72.532 165.929 72.4354C165.83 72.0052 155.709 29.1497 136.395 9.88125C136.295 9.79244 136.145 9.79244 136.045 9.88125C135.975 9.93356 129.121 15.3159 124.238 28.8009C123.463 30.9503 123.533 30.9922 123.754 31.1257L123.754 31.1259C123.797 31.1517 123.845 31.1676 123.894 31.1724L122.611 40.0597C122.598 40.15 122.634 40.2402 122.704 40.2981L154.128 67.6982C154.146 67.717 154.168 67.731 154.193 67.7389L165.562 72.7609ZM165.299 72.0343L154.467 67.2506L123.177 39.9435L124.501 30.7423C124.545 30.5935 124.48 30.434 124.343 30.3587H124.273C124.304 30.2721 124.343 30.157 124.391 30.0136C124.478 29.7528 124.596 29.3984 124.758 28.9521C129.138 16.8156 135.1 11.3634 136.208 10.4218C154.152 28.5103 164.086 67.0937 165.299 72.0343Z" fill="#231F20"/>
<path d="M124.775 36.5664C124.775 36.5664 127.884 21.9073 136.343 13.7466C136.343 13.7466 149.374 24.7903 161.974 69.0118L121.013 66.7391C121.013 66.7391 121.818 44.2622 124.775 36.5664Z" fill="#231F20"/>
<path fill-rule="evenodd" clip-rule="evenodd" d="M121.013 67.0298L161.975 69.3024C162.07 69.3281 162.172 69.3015 162.243 69.2327C162.303 69.1596 162.323 69.0616 162.295 68.9711C149.812 25.1449 136.705 13.671 136.57 13.5606C136.461 13.458 136.29 13.458 136.18 13.5606C127.885 21.5411 124.659 35.8399 124.513 36.5025C121.598 44.1011 120.785 65.5231 120.74 66.7066L120.739 66.7275C120.732 66.8859 120.854 67.0204 121.013 67.0298ZM161.584 68.7038L121.334 66.4659C121.421 63.8329 122.325 43.7681 125.061 36.6711V36.6246C125.09 36.4793 128.182 22.1921 136.349 14.1476C137.119 14.88 140.129 17.949 144.212 24.9879C148.581 32.4861 155.126 46.1454 161.584 68.7038Z" fill="#231F20"/>
<path d="M110.991 49.2144C110.991 49.2144 117.851 34.9448 126.368 26.6619C126.368 26.6619 137.119 35.0668 144.119 44.0646C151.119 53.0623 157.535 69.0118 157.535 69.0118H111.615L110.991 49.2144Z" fill="white"/>
<path fill-rule="evenodd" clip-rule="evenodd" d="M111.615 69.3024H157.541L157.511 69.2792C157.608 69.2799 157.699 69.2329 157.753 69.1538C157.808 69.0747 157.82 68.9737 157.786 68.8839C157.739 68.7444 151.264 52.7949 144.322 43.8902C137.602 35.2691 127.305 27.0783 126.561 26.4862C126.536 26.4667 126.522 26.4555 126.519 26.4527C126.409 26.3563 126.244 26.3563 126.134 26.4527C117.85 34.5298 111.018 48.4368 110.709 49.0655C110.704 49.077 110.7 49.0841 110.699 49.0866C110.69 49.1307 110.69 49.1761 110.699 49.2203L111.323 69.0234C111.329 69.1794 111.458 69.3026 111.615 69.3024ZM157.109 68.7212H111.895L111.288 49.2784C111.298 49.2586 111.31 49.2342 111.325 49.2055C112.06 47.736 118.535 34.7934 126.391 27.0456C127.896 28.2488 137.515 36.0491 143.891 44.2448C150.109 52.2718 156.053 66.1928 157.109 68.7212Z" fill="#231F20"/>
<path d="M126.251 29.5042C126.251 29.5042 116.976 38.223 113.575 50.1502C113.575 50.1502 153.364 64.1526 153.009 63.8038C152.653 63.4551 147.099 50.8942 140.759 43.5414C131.793 33.1312 126.251 29.5042 126.251 29.5042Z" fill="#231F20"/>
<path fill-rule="evenodd" clip-rule="evenodd" d="M133.152 57.3229C149.66 63.0831 152.495 64.0538 153.079 64.0538C153.201 64.0538 153.23 64.0131 153.254 63.9608C153.33 63.8527 153.317 63.706 153.224 63.612C153.149 63.5132 152.816 62.8447 152.431 62.0659L152.413 62.0298C150.49 58.1678 146.028 49.2078 140.992 43.3496C132.09 33.0034 126.467 29.3008 126.409 29.2659C126.296 29.1906 126.146 29.2027 126.047 29.295C125.954 29.3822 116.679 38.1998 113.295 50.0689C113.249 50.2164 113.329 50.3737 113.476 50.4234C113.476 50.4234 123.305 53.8819 133.152 57.3229ZM152.431 63.3563C148.389 62.0833 126.181 54.3062 113.931 49.9875C117.075 39.2634 125.026 31.1201 126.292 29.8995C127.342 30.6319 132.639 34.5321 140.566 43.7449C145.558 49.542 149.998 58.4728 151.908 62.3144L151.924 62.3449L152.431 63.3563Z" fill="#231F20"/>
<path d="M116.742 37.0024C116.742 37.0024 135.491 39.8563 146.667 52.6206C152.372 59.1422 157.541 69.0118 157.541 69.0118H134.68L116.742 37.0024Z" fill="#E7816B"/>
<path fill-rule="evenodd" clip-rule="evenodd" d="M134.68 69.2792H157.541C157.637 69.2788 157.725 69.2249 157.768 69.1397C157.815 69.0588 157.815 68.9591 157.768 68.8781L157.765 68.8717C157.606 68.5708 152.458 58.8355 146.854 52.4346C135.747 39.7575 116.958 36.7408 116.772 36.7408C116.67 36.7272 116.57 36.7695 116.509 36.8513C116.459 36.9397 116.459 37.0476 116.509 37.1361L134.447 69.1455C134.495 69.2285 134.584 69.2795 134.68 69.2792ZM157.097 68.7503H134.837L117.25 37.3628C120.412 37.9556 136.547 41.4664 146.463 52.7949C151.451 58.4912 156.077 66.8612 157.097 68.7503Z" fill="#231F20"/>
<path d="M106.593 50.1677C110.676 44.1576 113.009 40.3504 116.743 37.0024C123.713 41.1261 130.13 46.1143 135.841 51.8475C140.844 56.9318 145.078 62.7137 148.412 69.0118H97.376C97.376 69.0118 102.813 55.7128 106.593 50.1677Z" fill="white"/>
<path fill-rule="evenodd" clip-rule="evenodd" d="M97.3756 69.3024H148.411C148.509 69.3025 148.6 69.2518 148.651 69.1687C148.697 69.0795 148.697 68.9732 148.651 68.8839C145.292 62.5622 141.039 56.7543 136.021 51.6382C130.287 45.8932 123.849 40.8918 116.859 36.7524C116.753 36.6896 116.617 36.7038 116.526 36.7873C113.312 39.6412 111.125 42.8904 108.103 47.3835C107.566 48.2089 106.983 49.0807 106.353 50.0049C102.596 55.5094 97.1598 68.7735 97.1073 68.9072C97.0693 68.9952 97.0803 69.0967 97.1365 69.1746C97.1895 69.2546 97.2794 69.3026 97.3756 69.3024ZM147.933 68.7212H97.8131C98.7523 66.4659 103.477 55.2478 106.837 50.3304L108.616 47.709C111.562 43.3206 113.709 40.1353 116.783 37.3627C123.651 41.4655 129.984 46.3991 135.636 52.0509C140.491 57.0129 144.629 62.6234 147.933 68.7212Z" fill="#231F20"/>
<path d="M99.2363 69.0118C99.2363 69.0118 103.197 59.2701 108.12 51.5162C113.131 43.6286 117.005 39.8563 117.005 39.8563C117.005 39.8563 122.879 42.6347 132.585 52.1381C139.218 58.6307 145.378 68.9944 145.378 68.9944L99.2363 69.0118Z" fill="#231F20"/>
<path fill-rule="evenodd" clip-rule="evenodd" d="M99.2371 69.3024H145.379C145.489 69.3112 145.594 69.2542 145.647 69.1571C145.699 69.0672 145.699 68.9564 145.647 68.8665C145.644 68.8621 145.623 68.8272 145.584 68.7642C144.916 67.6665 139.042 58.025 132.814 51.9289C123.189 42.501 117.215 39.5948 117.157 39.5948C117.046 39.5437 116.915 39.5643 116.825 39.6471C116.823 39.6488 116.815 39.657 116.8 39.6719C116.462 40.0145 112.663 43.8608 107.9 51.3593C103.017 59.0259 99.0271 68.8084 98.9921 68.9072C98.9453 68.9902 98.9453 69.0915 98.9921 69.1746C99.0477 69.2547 99.1393 69.3025 99.2371 69.3024ZM144.86 68.7212H99.6746C100.474 66.8438 104.073 58.4331 108.366 51.6731C112.759 44.7563 116.311 40.9781 117.064 40.2109C118.131 40.7689 123.772 43.9134 132.382 52.3474C138.14 57.9797 143.611 66.681 144.86 68.7212Z" fill="#231F20"/>
<path d="M117.833 72.4935H58.2221C58.2221 72.4935 55.3813 46.9185 56.7871 30.0623C58.1929 13.206 66.9371 0.662628 66.9371 0.662628C66.9371 0.662628 89.0454 6.07988 102.34 27.3536C115.634 48.6274 117.833 72.4935 117.833 72.4935Z" fill="white"/>
<path fill-rule="evenodd" clip-rule="evenodd" d="M58.2223 72.7841H117.833C117.921 72.7926 118.008 72.7579 118.066 72.6911C118.123 72.6321 118.151 72.5514 118.142 72.4703L118.142 72.4689C118.111 72.153 115.776 48.267 102.591 27.1734C89.384 6.045 67.229 0.406875 67.0073 0.354562C66.8898 0.320124 66.7636 0.36758 66.6982 0.470812C66.6107 0.58125 57.884 13.3106 56.4957 30.0099C55.2236 45.3108 57.4922 68.0533 57.8811 71.9518C57.9166 72.3081 57.9365 72.507 57.9365 72.5284C57.9515 72.6742 58.0752 72.7849 58.2223 72.7841ZM117.53 72.2029H58.4848C58.1932 69.471 55.7665 45.8025 57.0907 30.0332C58.3973 14.5196 66.0565 2.51681 67.0832 0.970687C69.2823 1.57519 89.6815 7.61438 102.095 27.4815C114.386 47.1452 117.203 69.2966 117.53 72.2029Z" fill="#231F20"/>
<path d="M117.833 72.4935H99.7501C99.7501 72.4935 97.5451 49.4121 88.6667 28.9346C79.7884 8.45718 66.9551 0.63356 66.9551 0.63356C66.9551 0.63356 89.0634 6.05081 102.358 27.3246C115.652 48.5983 117.833 72.4935 117.833 72.4935Z" fill="#E7816B"/>
<path fill-rule="evenodd" clip-rule="evenodd" d="M99.75 72.7609H117.833H117.921C117.996 72.7612 118.068 72.7298 118.119 72.6745C118.17 72.6192 118.196 72.5451 118.189 72.4702L118.189 72.4682C118.155 72.1193 115.825 48.258 102.638 27.1851C89.4192 6.06244 67.2759 0.430122 67.0542 0.37781C66.9262 0.345125 66.7937 0.412352 66.745 0.534747C66.6967 0.654284 66.7409 0.791134 66.85 0.860247C66.8524 0.861933 66.861 0.86752 66.8757 0.877056C67.521 1.29493 79.8786 9.29728 88.4334 29.0451C97.1834 49.2435 99.4875 72.2901 99.4875 72.5226C99.5022 72.6566 99.6147 72.7587 99.75 72.7609ZM117.542 72.2319H99.96C99.6975 69.7151 97.195 47.9996 88.8767 28.8416C81.7659 12.4097 71.9659 4.01644 68.4134 1.36593C73.675 3.06318 91.0467 9.79406 102.095 27.4757C114.433 47.1975 117.233 69.4419 117.542 72.2319Z" fill="#231F20"/>
<path d="M97.3754 72.4935C97.3754 72.4935 93.6071 48.0112 88.6662 34.875C81.4096 15.6938 67.6662 4.68488 67.6662 4.68488C67.6662 4.68488 61.8329 15.6937 60.5204 24.7729C59.6687 30.7714 58.9687 60.5837 60.5787 72.2261L97.3754 72.4935Z" fill="#231F20"/>
<path fill-rule="evenodd" clip-rule="evenodd" d="M60.5787 72.5168L97.3754 72.7841C97.4624 72.7874 97.5461 72.751 97.6029 72.6853C97.6608 72.6203 97.6865 72.5329 97.6729 72.447C97.6706 72.4352 97.6595 72.3664 97.64 72.2449C97.2557 69.8608 93.5963 47.1541 88.9229 34.7878C81.7187 15.7403 67.9754 4.58606 67.8354 4.47563C67.7698 4.41881 67.6807 4.39714 67.5962 4.4175C67.5115 4.43364 67.4386 4.48704 67.3979 4.56281C67.3396 4.65 61.5179 15.6938 60.2287 24.7322C59.4062 30.5505 58.6771 60.6069 60.2929 72.2668C60.3131 72.4091 60.4345 72.5153 60.5787 72.5168ZM97.0371 72.2029L60.8354 71.9355C59.2721 60.1478 59.9896 30.5738 60.8121 24.8252C61.9554 16.74 66.7854 7.03313 67.7479 5.16731C76.8938 13.3479 83.9627 23.5728 88.3746 35.0029C92.9537 47.0987 96.5587 69.2036 97.0371 72.2029Z" fill="#231F20"/>
<path d="M52.5003 20.7041C52.5003 20.7041 64.7095 22.8141 78.6278 32.4919C102.282 48.9412 110.501 72.4935 110.501 72.4935H48.627C48.627 72.4935 50.7503 27.528 52.5003 20.7041Z" fill="#E7816B"/>
<path fill-rule="evenodd" clip-rule="evenodd" d="M48.6267 72.7609H110.518V72.7144C110.605 72.7128 110.685 72.6708 110.736 72.6011C110.786 72.5313 110.801 72.4419 110.775 72.3598C110.773 72.3555 110.768 72.3416 110.759 72.3185C110.341 71.1964 101.785 48.2345 78.8025 32.2536C64.9775 22.6455 52.675 20.4193 52.5525 20.4193C52.4138 20.3965 52.2803 20.4818 52.2433 20.6169C50.5108 27.3885 48.4283 70.6219 48.3408 72.4586C48.3403 72.5317 48.3674 72.6022 48.4167 72.6563C48.4674 72.7207 48.5445 72.7591 48.6267 72.7609ZM110.157 72.2261H48.9067C49.0875 68.4654 51.0825 28.1848 52.7392 21.0064C54.53 21.3668 65.8758 23.9126 78.5167 32.7011C100.24 47.8136 108.99 69.2269 110.157 72.2261Z" fill="#231F20"/>
<path d="M91.0645 72.4935C91.0645 72.4935 89.4545 59.6479 78.5753 45.3259C67.6962 31.0039 52.5003 20.7041 52.5003 20.7041C52.5003 20.7041 45.9845 29.8065 43.5637 40.6468C41.1428 51.4871 42.9803 72.4935 42.9803 72.4935H91.0645Z" fill="white"/>
<path fill-rule="evenodd" clip-rule="evenodd" d="M42.9862 72.7841H91.0645C91.1374 72.7801 91.2061 72.749 91.257 72.6969C91.311 72.6344 91.3364 72.5522 91.327 72.4702C91.3095 72.3307 89.5595 59.3398 78.7795 45.1515C68.0778 31.0662 53.0298 20.7215 52.6635 20.4697C52.6609 20.4679 52.659 20.4666 52.6579 20.4658C52.527 20.3759 52.348 20.4069 52.2554 20.5356C52.2544 20.5369 52.252 20.5403 52.2483 20.5457C51.9979 20.902 45.6168 29.9837 43.2779 40.5829C41.0593 50.6364 42.4776 69.6023 42.6731 72.2167C42.6868 72.4001 42.6945 72.503 42.6945 72.5167C42.7093 72.6668 42.8349 72.7819 42.9862 72.7841ZM90.7029 72.2029H43.2545C43.0562 69.75 41.6387 50.7257 43.8204 40.6933C46.0137 30.9748 51.5495 22.5932 52.5704 21.0936C54.5479 22.4886 68.3379 32.3582 78.3187 45.5061C88.072 58.3342 90.3587 70.1162 90.7029 72.2029Z" fill="#231F20"/>
<path d="M88.264 70.7556C88.264 70.7556 85.0498 57.5961 72.059 42.0999C66.5477 35.5537 60.2243 29.7314 53.2406 24.7729C53.2406 24.7729 47.2148 32.6837 45.704 42.7219C44.4673 50.9582 44.199 65.7219 44.1406 70.7556H88.264Z" fill="#231F20"/>
<path fill-rule="evenodd" clip-rule="evenodd" d="M44.1404 71.0462H88.2637C88.3485 71.0431 88.4276 71.0027 88.4795 70.9357C88.5365 70.8658 88.5561 70.7727 88.532 70.6858C88.5029 70.5521 85.1545 57.2822 72.2687 41.9139C66.7323 35.3538 60.3903 29.5129 53.392 24.5288C53.2656 24.4421 53.0931 24.4703 53.0012 24.5927C52.9487 24.6566 46.9229 32.6837 45.4179 42.6754C44.1987 50.7896 43.9129 65.0128 43.8487 70.7498C43.8475 70.8286 43.8792 70.9043 43.9362 70.959C43.9904 71.0132 44.0636 71.0445 44.1404 71.0462ZM87.8787 70.4649H44.4379C44.5079 64.5594 44.7995 50.7024 45.9954 42.7626C47.337 33.8462 52.3362 26.5283 53.3104 25.1681C60.1664 30.0962 66.3886 35.8453 71.837 42.2859C83.4454 56.1371 87.2545 68.2504 87.8787 70.4649Z" fill="#231F20"/>
<path d="M84.7522 72.4935C84.1689 70.2092 81.7364 62.3449 74.2522 51.0163C65.2864 37.4674 52.9956 33.4509 52.9956 33.4509H28.8164V34.3577L45.3364 72.4935H84.7522Z" fill="#E7816B"/>
<path fill-rule="evenodd" clip-rule="evenodd" d="M45.3366 72.7609H84.7524C84.8481 72.7646 84.9387 72.7183 84.9916 72.6388C85.0434 72.5754 85.0609 72.4907 85.0383 72.4121C84.4724 70.2324 82.0399 62.2577 74.4974 50.8536C65.5841 37.3802 53.2291 33.2243 53.1066 33.1836C53.0777 33.1781 53.048 33.1781 53.0191 33.1836H28.8458C28.6999 33.1867 28.5832 33.3055 28.5833 33.4509V34.3577C28.5777 34.3923 28.5777 34.4277 28.5833 34.4623L45.0916 72.5981C45.1322 72.6972 45.2292 72.7617 45.3366 72.7609ZM84.3908 72.2261H45.4999L29.0849 34.3054V33.7241H52.9374C53.7074 33.9857 65.4558 38.2288 74.0074 51.1616C81.1649 61.9787 83.6908 69.6744 84.3908 72.2261Z" fill="#231F20"/>
<path d="M72.0589 72.4935C68.7922 66.8438 53.6664 42.6405 28.8164 33.4509C28.8164 33.4509 21.0464 50.0224 23.2572 72.4935H72.0589Z" fill="white"/>
<path fill-rule="evenodd" clip-rule="evenodd" d="M23.2576 72.7841H72.0593C72.1629 72.7835 72.2583 72.7282 72.3101 72.6388C72.3622 72.5489 72.3622 72.4381 72.3101 72.3482C69.4751 67.4715 54.0576 42.4777 28.9218 33.1777C28.7785 33.1242 28.618 33.1902 28.5543 33.3289C28.5537 33.3302 28.5526 33.3326 28.551 33.336C28.3565 33.7639 20.7901 50.4089 22.966 72.5226C22.9835 72.6703 23.1083 72.7822 23.2576 72.7841ZM71.5518 72.2029H23.526C21.5835 51.6673 28.041 35.9503 28.9685 33.8404C53.1068 42.8788 68.1685 66.4601 71.5518 72.2029Z" fill="#231F20"/>
<path d="M69.0839 72.4935C67.5847 69.6919 62.0839 61.7811 55.5914 54.5736C43.3939 41.0769 29.8139 36.6536 29.8139 36.6536C23.508 53.9865 25.7772 67.1809 25.8997 72.4935H69.0839Z" fill="#231F20"/>
<path fill-rule="evenodd" clip-rule="evenodd" d="M25.918 72.7841H69.0846V72.7958C69.1878 72.796 69.2834 72.742 69.3361 72.6537C69.3889 72.5653 69.3908 72.4558 69.3413 72.3656C67.9646 69.7965 62.5746 61.8799 55.808 54.3934C43.698 40.9781 30.0421 36.4211 29.9021 36.3746C29.7529 36.3313 29.5952 36.4098 29.5405 36.5548C24.1971 51.2837 25.0138 63.1238 25.4571 69.5175C25.4725 69.7365 25.4881 69.9501 25.5033 70.158C25.5687 71.0538 25.6263 71.8436 25.6263 72.4993C25.6263 72.5759 25.6572 72.6492 25.7121 72.7028C25.7669 72.7564 25.8412 72.7857 25.918 72.7841ZM68.5888 72.2029H26.1805C26.1588 71.4914 26.1021 70.6499 26.0381 69.7016C26.0331 69.6273 26.0281 69.5524 26.023 69.4768C25.5855 63.1819 24.7805 51.5104 29.9896 37.0256C31.9496 37.7289 44.293 42.5184 55.3763 54.7654C61.7696 61.845 66.9146 69.2966 68.5888 72.2029Z" fill="#231F20"/>
<path d="M171.657 72.4935L168.863 66.867H78.3766L75.5999 72.4935H18.5791V92.3664H181.177V72.4935H171.657Z" fill="white"/>
<path fill-rule="evenodd" clip-rule="evenodd" d="M18.5788 92.6571H181.177C181.336 92.6539 181.463 92.5247 181.463 92.3664V72.4935C181.463 72.333 181.332 72.2029 181.171 72.2029H171.838L169.125 66.7391C169.075 66.6403 168.974 66.5775 168.863 66.5764H78.3763C78.2647 66.5762 78.1628 66.6393 78.1138 66.7391L75.4188 72.2029H18.5788C18.4177 72.2029 18.2871 72.333 18.2871 72.4935V92.3664C18.2871 92.527 18.4177 92.6571 18.5788 92.6571ZM180.885 92.0758H18.8704V72.7841H75.5996C75.7108 72.783 75.812 72.7202 75.8621 72.6214L78.5571 67.1576H168.682L171.395 72.6214C171.445 72.7202 171.546 72.783 171.657 72.7841H180.885V92.0758Z" fill="#231F20"/>
<rect x="58.2227" y="72.4935" width="32.8417" height="19.8671" fill="#D1D3D4"/>
<path fill-rule="evenodd" clip-rule="evenodd" d="M58.2223 92.6571H91.064C91.2251 92.6571 91.3557 92.527 91.3557 92.3664V72.4935C91.3557 72.333 91.2251 72.2029 91.064 72.2029H58.2223C58.0626 72.206 57.9338 72.3343 57.9307 72.4935V92.3664C57.9307 92.527 58.0612 92.6571 58.2223 92.6571ZM90.7723 92.0758H58.514V72.7841H90.7723V92.0758Z" fill="#231F20"/>
<path d="M142.503 73.9641L164.191 92.3664H142.503V73.9641Z" fill="#D1D3D4"/>
<path fill-rule="evenodd" clip-rule="evenodd" d="M142.503 92.6571H164.191C164.313 92.6559 164.421 92.5796 164.462 92.4658C164.504 92.3519 164.47 92.2243 164.378 92.1456L142.689 73.7432C142.602 73.6726 142.483 73.6569 142.38 73.7025C142.277 73.7486 142.21 73.8512 142.211 73.9641V92.3664C142.211 92.527 142.342 92.6571 142.503 92.6571ZM163.398 92.0758H142.794V74.5976L163.398 92.0758Z" fill="#231F20"/>
<rect x="13.8838" y="76.1031" width="44.3392" height="1.9995" fill="white"/>
<path fill-rule="evenodd" clip-rule="evenodd" d="M13.8893 78.3932H58.2227C58.3 78.3932 58.3742 78.3626 58.4289 78.3081C58.4836 78.2536 58.5143 78.1796 58.5143 78.1026V76.1031C58.5143 75.9426 58.3837 75.8124 58.2227 75.8124H13.8893C13.7282 75.8124 13.5977 75.9426 13.5977 76.1031V78.1026C13.6008 78.2618 13.7295 78.3901 13.8893 78.3932ZM57.9252 77.8119H14.1752V76.3937H57.9252V77.8119Z" fill="#231F20"/>
<rect x="9.60156" y="81.1774" width="48.6267" height="3.52238" fill="white"/>
<path fill-rule="evenodd" clip-rule="evenodd" d="M9.60124 84.9846H58.2221C58.3832 84.9846 58.5137 84.8544 58.5137 84.6939V81.1774C58.5137 81.0169 58.3832 80.8867 58.2221 80.8867H9.60124C9.44015 80.8867 9.30957 81.0169 9.30957 81.1774V84.6939C9.30957 84.8544 9.44015 84.9846 9.60124 84.9846ZM57.9304 84.4033H9.8929L9.91624 81.468H57.9304V84.4033Z" fill="#231F20"/>
<rect x="9.60156" y="83.2757" width="48.6267" height="4.38844" fill="#E7816B"/>
<path fill-rule="evenodd" clip-rule="evenodd" d="M9.60134 87.9257H58.2222C58.2928 87.9273 58.3611 87.9004 58.4116 87.8512C58.4621 87.8019 58.4905 87.7345 58.4905 87.6641V83.2757C58.4905 83.128 58.3704 83.0083 58.2222 83.0083H9.60134C9.45314 83.0083 9.33301 83.128 9.33301 83.2757V87.6641C9.33299 87.7345 9.36145 87.8019 9.41194 87.8512C9.46244 87.9004 9.53072 87.9273 9.60134 87.9257ZM57.9597 87.3968H9.86384V83.5431H57.9597V87.3968Z" fill="#231F20"/>
<rect x="13.8838" y="78.1026" width="44.3392" height="3.07481" fill="#E7816B"/>
<path fill-rule="evenodd" clip-rule="evenodd" d="M13.8896 81.4389H58.2229C58.2935 81.4405 58.3618 81.4136 58.4123 81.3644C58.4628 81.3152 58.4913 81.2478 58.4912 81.1774V78.1026C58.4929 78.0312 58.4651 77.9622 58.4144 77.9117C58.3638 77.8612 58.2946 77.8336 58.2229 77.8352H13.8896C13.8189 77.8352 13.7513 77.8635 13.7019 77.9138C13.6525 77.9641 13.6255 78.0322 13.6271 78.1026V81.1774C13.6271 81.3218 13.7446 81.4389 13.8896 81.4389ZM57.9604 80.91H14.1521V78.3641H57.9604V80.91Z" fill="#231F20"/>
<rect x="18.5791" y="74.307" width="39.6492" height="1.79606" fill="#E7816B"/>
<path fill-rule="evenodd" clip-rule="evenodd" d="M18.5554 76.3704H58.2221C58.3703 76.3704 58.4904 76.2507 58.4904 76.1031V74.307C58.4904 74.2361 58.4622 74.1681 58.4118 74.1179C58.3615 74.0678 58.2933 74.0396 58.2221 74.0396H18.5554C18.4843 74.0396 18.416 74.0678 18.3657 74.1179C18.3154 74.1681 18.2871 74.2361 18.2871 74.307V76.1031C18.2871 76.2507 18.4072 76.3704 18.5554 76.3704ZM57.9596 75.8357H18.8413V74.5744H57.9596V75.8357Z" fill="#231F20"/>
<path d="M75.5996 72.4935H101.36L103.74 66.867H78.3763L75.5996 72.4935Z" fill="#D1D3D4"/>
<path fill-rule="evenodd" clip-rule="evenodd" d="M75.5999 72.7841H101.36C101.473 72.779 101.573 72.7087 101.617 72.6039L103.997 66.9832C104.043 66.8981 104.043 66.7952 103.997 66.7101C103.943 66.6269 103.851 66.5765 103.752 66.5764H78.3882C78.2767 66.5761 78.1748 66.6393 78.1257 66.7391L75.349 72.3656C75.299 72.4519 75.299 72.5583 75.349 72.6446C75.4039 72.7301 75.4981 72.7825 75.5999 72.7841ZM101.15 72.2029H76.0665L78.5574 67.1576H103.285L101.15 72.2029Z" fill="#231F20"/>
<rect x="109.305" y="69.8837" width="38.4825" height="1.73794" fill="#E7816B"/>
<rect x="159.997" y="78.585" width="16.1875" height="1.27294" fill="#E7816B"/>
<rect x="0.822266" y="86.0599" width="57.4058" height="6.30656" fill="white"/>
<path fill-rule="evenodd" clip-rule="evenodd" d="M0.822917 92.6571H58.2229C58.384 92.6571 58.5146 92.527 58.5146 92.3664V86.0599C58.5146 85.8994 58.384 85.7693 58.2229 85.7693H0.822917C0.661834 85.7693 0.53125 85.8994 0.53125 86.0599V92.3664C0.53125 92.527 0.661834 92.6571 0.822917 92.6571ZM57.9312 92.0758H1.11458V86.3505H57.9312V92.0758Z" fill="#231F20"/>
<path d="M171.657 74.2314H142.49C142.386 74.2469 142.283 74.2001 142.225 74.1119C142.168 74.0237 142.168 73.9103 142.225 73.8221C142.283 73.7338 142.386 73.6871 142.49 73.7025H171.657C171.761 73.6871 171.865 73.7338 171.922 73.8221C171.979 73.9103 171.979 74.0237 171.922 74.1119C171.865 74.2001 171.761 74.2469 171.657 74.2314Z" fill="#231F20"/>
</svg>
