<svg width="182" height="143" viewBox="0 0 182 143" fill="none" xmlns="http://www.w3.org/2000/svg">
<rect x="116.429" y="142.025" width="47.2303" height="65.0554" transform="rotate(-180 116.429 142.025)" fill="white"/>
<path fill-rule="evenodd" clip-rule="evenodd" d="M69.211 142.359H116.435C116.523 142.361 116.608 142.326 116.67 142.263C116.732 142.2 116.765 142.114 116.762 142.025V76.9507C116.762 76.7736 116.618 76.63 116.441 76.63H69.211C69.0341 76.63 68.8906 76.7736 68.8906 76.9507V142.038C68.8906 142.215 69.0341 142.359 69.211 142.359ZM116.114 141.717H69.5251V77.2905H116.114V141.717Z" fill="#231F20"/>
<path d="M114.34 84.5944H71.2941C71.1171 84.5944 70.9736 84.4509 70.9736 84.2738C70.977 84.0982 71.1185 83.9566 71.2941 83.9532H114.34C114.517 83.9532 114.66 84.0967 114.66 84.2738C114.66 84.3588 114.626 84.4404 114.566 84.5005C114.506 84.5607 114.425 84.5944 114.34 84.5944Z" fill="#D1D3D4"/>
<path d="M114.34 91.6995H71.2941C71.1185 91.6961 70.977 91.5546 70.9736 91.3789C70.9736 91.2018 71.1171 91.0583 71.2941 91.0583H114.34C114.517 91.0583 114.66 91.2018 114.66 91.3789C114.66 91.464 114.626 91.5455 114.566 91.6056C114.506 91.6658 114.425 91.6995 114.34 91.6995Z" fill="#D1D3D4"/>
<path d="M114.34 98.7983H71.2941C71.1185 98.7948 70.977 98.6533 70.9736 98.4776C70.9736 98.3005 71.1171 98.157 71.2941 98.157H114.34C114.517 98.157 114.66 98.3005 114.66 98.4776C114.66 98.5627 114.626 98.6442 114.566 98.7043C114.506 98.7645 114.425 98.7983 114.34 98.7983Z" fill="#D1D3D4"/>
<path d="M114.34 105.897H71.2941C71.1171 105.897 70.9736 105.753 70.9736 105.576C70.9736 105.399 71.1171 105.256 71.2941 105.256H114.34C114.517 105.256 114.66 105.399 114.66 105.576C114.66 105.753 114.517 105.897 114.34 105.897Z" fill="#D1D3D4"/>
<path d="M114.34 112.996H71.2941C71.1171 112.996 70.9736 112.852 70.9736 112.675C70.977 112.499 71.1185 112.358 71.2941 112.354H114.34C114.517 112.354 114.66 112.498 114.66 112.675C114.66 112.76 114.626 112.842 114.566 112.902C114.506 112.962 114.425 112.996 114.34 112.996Z" fill="#D1D3D4"/>
<path d="M114.34 120.101H71.2941C71.1185 120.097 70.977 119.956 70.9736 119.78C70.9736 119.603 71.1171 119.46 71.2941 119.46H114.34C114.517 119.46 114.66 119.603 114.66 119.78C114.66 119.865 114.626 119.947 114.566 120.007C114.506 120.067 114.425 120.101 114.34 120.101Z" fill="#D1D3D4"/>
<path d="M114.34 127.199H71.2941C71.1185 127.196 70.977 127.054 70.9736 126.879C70.9736 126.702 71.1171 126.558 71.2941 126.558H114.34C114.517 126.558 114.66 126.702 114.66 126.879C114.66 126.964 114.626 127.045 114.566 127.106C114.506 127.166 114.425 127.199 114.34 127.199Z" fill="#D1D3D4"/>
<path d="M114.34 134.298H71.2941C71.1171 134.298 70.9736 134.155 70.9736 133.978C70.9736 133.8 71.1171 133.657 71.2941 133.657H114.34C114.517 133.657 114.66 133.8 114.66 133.978C114.66 134.155 114.517 134.298 114.34 134.298Z" fill="#D1D3D4"/>
<rect x="116.436" y="76.9635" width="40.2066" height="3.75776" transform="rotate(-180 116.436 76.9635)" fill="#231F20"/>
<path fill-rule="evenodd" clip-rule="evenodd" d="M76.2218 77.2905H116.435C116.523 77.2889 116.606 77.2519 116.666 77.188C116.727 77.124 116.759 77.0385 116.755 76.9507V73.2122C116.755 73.0351 116.612 72.8915 116.435 72.8915H76.2218C76.0448 72.8915 75.9014 73.0351 75.9014 73.2122V76.9699C75.9048 77.1456 76.0463 77.2871 76.2218 77.2905ZM116.114 76.6493H76.5422V73.5328H116.114V76.6493Z" fill="#231F20"/>
<rect x="46.9678" y="93.7516" width="13.1565" height="48.2673" fill="white"/>
<path fill-rule="evenodd" clip-rule="evenodd" d="M46.9679 142.359H60.1244C60.2129 142.359 60.2974 142.322 60.3581 142.258C60.4188 142.194 60.4502 142.107 60.4449 142.019V93.7516C60.4449 93.5745 60.3014 93.4309 60.1244 93.4309H46.9679C46.7924 93.4344 46.6509 93.5759 46.6475 93.7516V142.038C46.6475 142.215 46.7909 142.359 46.9679 142.359ZM59.8232 141.717H47.3075L47.2883 94.0722H59.8232V141.717Z" fill="#231F20"/>
<rect x="21.6738" y="87.6083" width="25.7299" height="54.417" fill="white"/>
<path fill-rule="evenodd" clip-rule="evenodd" d="M21.673 142.359H47.4221C47.5094 142.359 47.5929 142.323 47.6533 142.26C47.7138 142.197 47.746 142.113 47.7425 142.025V87.6083C47.7425 87.4313 47.5991 87.2877 47.4221 87.2877H21.673C21.496 87.2877 21.3525 87.4313 21.3525 87.6083V142.038C21.3525 142.215 21.496 142.359 21.673 142.359ZM47.1017 141.717H22.0126L21.9934 87.929H47.1017V141.717Z" fill="#231F20"/>
<path d="M46.2631 94.0401H22.8146C22.6376 94.0401 22.4941 93.8966 22.4941 93.7195C22.4941 93.5424 22.6376 93.3989 22.8146 93.3989H46.2631C46.44 93.3989 46.5835 93.5424 46.5835 93.7195C46.5835 93.8966 46.44 94.0401 46.2631 94.0401Z" fill="#D1D3D4"/>
<path d="M46.2631 99.9846H22.8146C22.6376 99.9846 22.4941 99.841 22.4941 99.664C22.4941 99.4869 22.6376 99.3433 22.8146 99.3433H46.2631C46.44 99.3433 46.5835 99.4869 46.5835 99.664C46.5835 99.841 46.44 99.9846 46.2631 99.9846Z" fill="#D1D3D4"/>
<path d="M46.2631 105.923H22.8146C22.6376 105.923 22.4941 105.779 22.4941 105.602C22.4941 105.425 22.6376 105.281 22.8146 105.281H46.2631C46.44 105.281 46.5835 105.425 46.5835 105.602C46.5835 105.779 46.44 105.923 46.2631 105.923Z" fill="#D1D3D4"/>
<path d="M46.2631 111.861H22.8146C22.6376 111.861 22.4941 111.717 22.4941 111.54C22.4941 111.363 22.6376 111.219 22.8146 111.219H46.2631C46.44 111.219 46.5835 111.363 46.5835 111.54C46.5835 111.717 46.44 111.861 46.2631 111.861Z" fill="#D1D3D4"/>
<path d="M46.2631 117.799H22.8146C22.6376 117.799 22.4941 117.655 22.4941 117.478C22.4941 117.301 22.6376 117.157 22.8146 117.157H46.2631C46.44 117.157 46.5835 117.301 46.5835 117.478C46.5835 117.655 46.44 117.799 46.2631 117.799Z" fill="#D1D3D4"/>
<path d="M46.2631 123.762H22.8146C22.6376 123.762 22.4941 123.619 22.4941 123.442C22.4941 123.265 22.6376 123.121 22.8146 123.121H46.2631C46.44 123.121 46.5835 123.265 46.5835 123.442C46.5835 123.619 46.44 123.762 46.2631 123.762Z" fill="#D1D3D4"/>
<path d="M46.2631 129.675H22.8146C22.6376 129.675 22.4941 129.531 22.4941 129.354C22.4941 129.177 22.6376 129.033 22.8146 129.033H46.2631C46.44 129.033 46.5835 129.177 46.5835 129.354C46.5835 129.531 46.44 129.675 46.2631 129.675Z" fill="#D1D3D4"/>
<path d="M46.2631 135.613H22.8146C22.6376 135.613 22.4941 135.469 22.4941 135.292C22.4941 135.115 22.6376 134.971 22.8146 134.971H46.2631C46.44 134.971 46.5835 135.115 46.5835 135.292C46.5835 135.469 46.44 135.613 46.2631 135.613Z" fill="#D1D3D4"/>
<rect x="21.6738" y="84.4662" width="21.9041" height="3.14215" fill="#231F20"/>
<path fill-rule="evenodd" clip-rule="evenodd" d="M21.673 87.929H43.577C43.754 87.929 43.8975 87.7854 43.8975 87.6083V84.4662C43.8975 84.2891 43.754 84.1456 43.577 84.1456H21.673C21.496 84.1456 21.3525 84.2891 21.3525 84.4662V87.6083C21.3525 87.7854 21.496 87.929 21.673 87.929ZM43.2566 87.2877H21.9934V84.7868H43.2566V87.2877Z" fill="#231F20"/>
<rect x="54.6836" y="98.0352" width="2.42239" height="0.641256" fill="#D1D3D4"/>
<rect x="50.4346" y="105.05" width="2.42239" height="0.641256" fill="#D1D3D4"/>
<rect x="53.459" y="111.713" width="2.42239" height="0.641256" fill="#D1D3D4"/>
<path d="M83.5149 127.417C77.5614 117.895 62.4055 111.123 44.6476 111.123C26.8898 111.123 11.7403 117.895 5.76758 127.417H83.5149Z" fill="#E7816B"/>
<path fill-rule="evenodd" clip-rule="evenodd" d="M5.76744 127.712H83.5148C83.5919 127.689 83.6565 127.636 83.6942 127.565C83.7455 127.471 83.7455 127.358 83.6942 127.264C77.5741 117.433 61.8286 110.828 44.6026 110.828C27.3767 110.828 11.6568 117.433 5.5111 127.264C5.45594 127.356 5.45594 127.472 5.5111 127.565C5.56394 127.657 5.66175 127.713 5.76744 127.712ZM82.9765 127.129H6.31856C12.5604 117.709 27.8574 111.418 44.6475 111.418C61.4376 111.418 76.741 117.709 82.9765 127.129Z" fill="#231F20"/>
<path d="M82.1823 132.535H9.06183L5.88965 127.27H83.4127L82.1823 132.535Z" fill="#231F20"/>
<path fill-rule="evenodd" clip-rule="evenodd" d="M9.06185 132.855H82.1823C82.3421 132.869 82.4872 132.762 82.5219 132.605L83.7459 127.341C83.7692 127.247 83.7479 127.147 83.6883 127.071C83.6258 126.994 83.5314 126.949 83.4319 126.949H5.88967C5.77553 126.949 5.67002 127.01 5.61411 127.11C5.55702 127.211 5.55702 127.335 5.61411 127.437L8.78629 132.701C8.84478 132.798 8.94937 132.856 9.06185 132.855ZM81.9259 132.214H9.24129L6.46002 127.591H83.0026L81.9259 132.214Z" fill="#231F20"/>
<rect x="7.31836" y="132.535" width="76.0875" height="9.49058" fill="#231F20"/>
<path fill-rule="evenodd" clip-rule="evenodd" d="M7.31847 142.359H83.406C83.583 142.359 83.7264 142.215 83.7264 142.038V132.548C83.7264 132.37 83.583 132.227 83.406 132.227H7.31847C7.1415 132.227 6.99805 132.37 6.99805 132.548V142.038C6.99805 142.215 7.1415 142.359 7.31847 142.359ZM83.0856 141.717H7.63889V132.868H83.0856V141.717Z" fill="#231F20"/>
<path d="M77.5808 128.514C72.6591 120.639 60.1306 115.048 45.4552 115.048C30.7799 115.048 18.2449 120.646 13.3232 128.514H77.5808Z" fill="#E7816B"/>
<path fill-rule="evenodd" clip-rule="evenodd" d="M13.3227 128.803H77.5803C77.6837 128.801 77.7785 128.745 77.8302 128.655C77.8816 128.564 77.8816 128.452 77.8302 128.36C72.7419 120.216 59.7327 114.746 45.4547 114.746C31.1767 114.746 18.1611 120.216 13.0728 128.36C13.0162 128.45 13.0134 128.564 13.0656 128.656C13.1179 128.749 13.2166 128.805 13.3227 128.803ZM77.042 128.251H13.861C19.0391 120.492 31.6381 115.368 45.4547 115.368C59.2713 115.368 71.8639 120.556 77.042 128.251Z" fill="#231F20"/>
<path fill-rule="evenodd" clip-rule="evenodd" d="M21.9619 128.835H68.9423C69.0641 128.846 69.1821 128.789 69.2499 128.687C69.3011 128.591 69.3011 128.476 69.2499 128.379C65.5137 120.21 55.9651 114.721 45.4745 114.721C34.9839 114.721 25.4289 120.21 21.6927 128.379C21.6415 128.476 21.6415 128.591 21.6927 128.687C21.7532 128.777 21.8536 128.832 21.9619 128.835ZM68.436 128.193H22.4682C26.2748 120.498 35.4132 115.368 45.4553 115.368C55.4973 115.368 64.6614 120.498 68.436 128.193Z" fill="#231F20"/>
<path fill-rule="evenodd" clip-rule="evenodd" d="M31.824 128.835H59.0791C59.1795 128.833 59.2737 128.786 59.3355 128.706C59.394 128.627 59.4129 128.526 59.3867 128.431C57.2143 120.229 51.6197 114.721 45.4548 114.721C39.2898 114.721 33.6889 120.229 31.5164 128.431C31.4903 128.526 31.5092 128.627 31.5677 128.706C31.6294 128.786 31.7236 128.833 31.824 128.835ZM58.6626 128.193H32.2405C34.413 120.498 39.6936 115.368 45.4548 115.368C51.216 115.368 56.4901 120.498 58.6626 128.193Z" fill="#231F20"/>
<path fill-rule="evenodd" clip-rule="evenodd" d="M41.3923 128.835H49.5118C49.6014 128.834 49.6869 128.797 49.7489 128.732C49.8076 128.665 49.8375 128.577 49.8322 128.488C49.3003 121.832 47.9161 114.721 45.4553 114.721C42.9944 114.721 41.5974 121.832 41.0719 128.488C41.0666 128.577 41.0965 128.665 41.1552 128.732C41.2172 128.797 41.3027 128.834 41.3923 128.835ZM49.1658 128.193H41.7384C42.4433 119.767 44.1351 115.368 45.4553 115.368C46.7754 115.368 48.4608 119.767 49.1658 128.193Z" fill="#231F20"/>
<path d="M76.4786 132.74H14.4256L13.4131 128.386H77.4912L76.4786 132.74Z" fill="white"/>
<path fill-rule="evenodd" clip-rule="evenodd" d="M14.4252 133.061H76.4782C76.6309 133.064 76.7651 132.96 76.7986 132.81L77.8112 128.463C77.8345 128.367 77.8133 128.265 77.7535 128.187C77.691 128.109 77.5967 128.065 77.4972 128.065H13.4127C13.3147 128.064 13.2219 128.109 13.1627 128.187C13.1007 128.264 13.0771 128.366 13.0986 128.463L14.1112 132.81C14.1442 132.957 14.2748 133.061 14.4252 133.061ZM76.2027 132.419H14.6815L13.8164 128.706H77.0678L76.2027 132.419Z" fill="#231F20"/>
<rect x="13.4131" y="132.74" width="64.0845" height="9.28538" fill="#E7816B"/>
<path fill-rule="evenodd" clip-rule="evenodd" d="M13.4061 142.32H77.4906C77.5688 142.32 77.6438 142.289 77.6991 142.234C77.7544 142.179 77.7854 142.104 77.7854 142.025V132.74C77.7854 132.577 77.6534 132.445 77.4906 132.445H13.4061C13.2433 132.445 13.1113 132.577 13.1113 132.74V142.025C13.1113 142.188 13.2433 142.32 13.4061 142.32ZM77.2022 141.717H13.7009V133.035H77.2022V141.717Z" fill="#231F20"/>
<path d="M77.0807 130.887H15.6173C15.4403 130.887 15.2969 130.743 15.2969 130.566C15.2969 130.389 15.4403 130.245 15.6173 130.245H77.0807C77.2577 130.245 77.4012 130.389 77.4012 130.566C77.4012 130.743 77.2577 130.887 77.0807 130.887Z" fill="#D1D3D4"/>
<rect x="15.9121" y="135.35" width="12.1761" height="6.67547" fill="#231F20"/>
<path fill-rule="evenodd" clip-rule="evenodd" d="M15.9191 142.359H28.0951C28.1824 142.359 28.2659 142.323 28.3263 142.26C28.3868 142.197 28.419 142.113 28.4155 142.025V135.35C28.4121 135.174 28.2706 135.033 28.0951 135.029H15.9191C15.7435 135.033 15.602 135.174 15.5986 135.35V142.038C15.5986 142.215 15.7421 142.359 15.9191 142.359ZM27.7683 141.717H16.2331V135.683H27.7683V141.717Z" fill="#231F20"/>
<path d="M19.0265 142.359C18.8495 142.359 18.7061 142.215 18.7061 142.038V135.35C18.7061 135.173 18.8495 135.029 19.0265 135.029C19.2034 135.029 19.3469 135.173 19.3469 135.35V142.025C19.3504 142.113 19.3182 142.197 19.2577 142.26C19.1972 142.323 19.1137 142.359 19.0265 142.359Z" fill="white"/>
<path d="M22.0069 142.359C21.83 142.359 21.6865 142.215 21.6865 142.038V135.35C21.6865 135.173 21.83 135.029 22.0069 135.029C22.1825 135.033 22.324 135.174 22.3274 135.35V142.025C22.3309 142.113 22.2986 142.197 22.2382 142.26C22.1777 142.323 22.0942 142.359 22.0069 142.359Z" fill="white"/>
<path d="M24.9933 142.359C24.8163 142.359 24.6729 142.215 24.6729 142.038V135.35C24.6763 135.174 24.8177 135.033 24.9933 135.029C25.1702 135.029 25.3137 135.173 25.3137 135.35V142.025C25.3172 142.113 25.285 142.197 25.2245 142.26C25.164 142.323 25.0805 142.359 24.9933 142.359Z" fill="white"/>
<rect x="31.5488" y="135.35" width="12.1761" height="6.67547" fill="#231F20"/>
<path fill-rule="evenodd" clip-rule="evenodd" d="M31.5489 142.359H43.725C43.8122 142.359 43.8957 142.323 43.9562 142.26C44.0167 142.197 44.0489 142.113 44.0454 142.025V135.35C44.0454 135.173 43.902 135.029 43.725 135.029H31.5489C31.372 135.029 31.2285 135.173 31.2285 135.35V142.038C31.2285 142.215 31.372 142.359 31.5489 142.359ZM43.4046 141.717H31.8694V135.683H43.4046V141.717Z" fill="#231F20"/>
<path d="M34.6573 142.359C34.4804 142.359 34.3369 142.215 34.3369 142.038V135.35C34.3403 135.174 34.4818 135.033 34.6573 135.029C34.8343 135.029 34.9778 135.173 34.9778 135.35V142.025C34.9812 142.113 34.949 142.197 34.8886 142.26C34.8281 142.323 34.7446 142.359 34.6573 142.359Z" fill="white"/>
<path d="M37.6368 142.359C37.4599 142.359 37.3164 142.215 37.3164 142.038V135.35C37.3164 135.173 37.4599 135.029 37.6368 135.029C37.8138 135.029 37.9573 135.173 37.9573 135.35V142.025C37.9607 142.113 37.9285 142.197 37.8681 142.26C37.8076 142.323 37.7241 142.359 37.6368 142.359Z" fill="white"/>
<path d="M40.6163 142.359C40.4394 142.359 40.2959 142.215 40.2959 142.038V135.35C40.2959 135.173 40.4394 135.029 40.6163 135.029C40.7919 135.033 40.9333 135.174 40.9367 135.35V142.025C40.9402 142.113 40.908 142.197 40.8475 142.26C40.7871 142.323 40.7036 142.359 40.6163 142.359Z" fill="white"/>
<rect x="47.1787" y="135.35" width="12.1761" height="6.67547" fill="#231F20"/>
<path fill-rule="evenodd" clip-rule="evenodd" d="M47.1788 142.359H59.3549C59.4421 142.359 59.5256 142.323 59.5861 142.26C59.6466 142.197 59.6788 142.113 59.6753 142.025V135.35C59.6753 135.173 59.5318 135.029 59.3549 135.029H47.1788C47.0019 135.029 46.8584 135.173 46.8584 135.35V142.038C46.8584 142.215 47.0019 142.359 47.1788 142.359ZM59.0345 141.717H47.4992V135.683H59.0345V141.717Z" fill="#231F20"/>
<path d="M50.2931 142.359C50.1161 142.359 49.9727 142.215 49.9727 142.038V135.35C49.9727 135.173 50.1161 135.029 50.2931 135.029C50.4686 135.033 50.6101 135.174 50.6135 135.35V142.025C50.617 142.113 50.5848 142.197 50.5243 142.26C50.4638 142.323 50.3803 142.359 50.2931 142.359Z" fill="white"/>
<path d="M53.2667 142.359C53.0897 142.359 52.9463 142.215 52.9463 142.038V135.35C52.9497 135.174 53.0912 135.033 53.2667 135.029C53.4437 135.029 53.5871 135.173 53.5871 135.35V142.025C53.5906 142.113 53.5584 142.197 53.4979 142.26C53.4375 142.323 53.354 142.359 53.2667 142.359Z" fill="white"/>
<path d="M56.2472 142.359C56.0702 142.359 55.9268 142.215 55.9268 142.038V135.35C55.9268 135.173 56.0702 135.029 56.2472 135.029C56.4227 135.033 56.5642 135.174 56.5676 135.35V142.025C56.5711 142.113 56.5389 142.197 56.4784 142.26C56.4179 142.323 56.3344 142.359 56.2472 142.359Z" fill="white"/>
<rect x="62.8096" y="135.35" width="12.1761" height="6.67547" fill="#231F20"/>
<path fill-rule="evenodd" clip-rule="evenodd" d="M62.8028 142.359H74.9789C75.0662 142.359 75.1497 142.323 75.2101 142.26C75.2706 142.197 75.3028 142.113 75.2993 142.025V135.35C75.2959 135.174 75.1544 135.033 74.9789 135.029H62.8028C62.6273 135.033 62.4858 135.174 62.4824 135.35V142.038C62.4824 142.215 62.6259 142.359 62.8028 142.359ZM74.6521 141.717H63.1169V135.683H74.6521V141.717Z" fill="#231F20"/>
<path d="M65.9239 142.359C65.747 142.359 65.6035 142.215 65.6035 142.038V135.35C65.6035 135.173 65.747 135.029 65.9239 135.029C66.0995 135.033 66.241 135.174 66.2444 135.35V142.025C66.2479 142.113 66.2156 142.197 66.1552 142.26C66.0947 142.323 66.0112 142.359 65.9239 142.359Z" fill="white"/>
<path d="M68.8976 142.359C68.7206 142.359 68.5771 142.215 68.5771 142.038V135.35C68.5806 135.174 68.722 135.033 68.8976 135.029C69.0745 135.029 69.218 135.173 69.218 135.35V142.025C69.2215 142.113 69.1893 142.197 69.1288 142.26C69.0683 142.323 68.9848 142.359 68.8976 142.359Z" fill="white"/>
<path d="M71.8771 142.359C71.7001 142.359 71.5566 142.215 71.5566 142.038V135.35C71.5566 135.173 71.7001 135.029 71.8771 135.029C72.054 135.029 72.1975 135.173 72.1975 135.35V142.025C72.201 142.113 72.1688 142.197 72.1083 142.26C72.0478 142.323 71.9643 142.359 71.8771 142.359Z" fill="white"/>
<path d="M85.5528 6.83578C85.3759 6.83578 85.2324 6.69223 85.2324 6.51516V0.910582C85.2324 0.733504 85.3759 0.589954 85.5528 0.589954C85.7284 0.593366 85.8699 0.734937 85.8733 0.910582V6.51516C85.8699 6.6908 85.7284 6.83237 85.5528 6.83578Z" fill="#231F20"/>
<rect x="82.9443" y="33.916" width="5.21648" height="3.61027" fill="#E7816B"/>
<path fill-rule="evenodd" clip-rule="evenodd" d="M82.9442 37.8341H88.1607C88.24 37.8324 88.3153 37.7988 88.3696 37.7409C88.4239 37.683 88.4525 37.6056 88.4491 37.5263V33.916C88.4491 33.7566 88.3199 33.6274 88.1607 33.6274H82.9442C82.7839 33.6274 82.6529 33.7556 82.6494 33.916V37.5391C82.6528 37.7006 82.7828 37.8307 82.9442 37.8341ZM87.8659 37.2441H83.239V34.211H87.8659V37.2441Z" fill="#231F20"/>
<rect x="81.9189" y="31.5882" width="7.26718" height="2.33417" fill="white"/>
<path fill-rule="evenodd" clip-rule="evenodd" d="M81.9191 34.2366H89.1862C89.2712 34.2366 89.3527 34.2029 89.4128 34.1427C89.4729 34.0826 89.5067 34.001 89.5067 33.916V31.5883C89.5067 31.4112 89.3632 31.2676 89.1862 31.2676H81.9191C81.7421 31.2676 81.5986 31.4112 81.5986 31.5883V33.916C81.5986 34.0931 81.7421 34.2366 81.9191 34.2366ZM88.8658 33.5954H82.2395V31.9089H88.8658V33.5954Z" fill="#231F20"/>
<path d="M84.1489 11.4272H86.9558L87.5197 31.5883H83.585L84.1489 11.4272Z" fill="#E7816B"/>
<path fill-rule="evenodd" clip-rule="evenodd" d="M83.5859 31.8768H87.5207C87.5928 31.8735 87.6612 31.8439 87.7129 31.7934C87.7651 31.7352 87.7946 31.6601 87.7962 31.5818L87.2515 11.4208C87.248 11.2604 87.117 11.1322 86.9567 11.1322H84.1498C83.9895 11.1322 83.8585 11.2604 83.855 11.4208L83.2911 31.5818C83.2895 31.6607 83.3195 31.7369 83.3744 31.7934C83.4296 31.8504 83.5067 31.8808 83.5859 31.8768ZM87.2195 31.2933H83.8871L84.4318 11.7221H86.6683L87.2195 31.2933Z" fill="#231F20"/>
<path d="M88.469 19.9879C88.469 20.3727 88.1614 20.7254 87.6551 20.9819H83.4447C82.9385 20.7254 82.6309 20.3727 82.6309 19.9879C82.681 19.5665 82.9559 19.2055 83.3486 19.0453H87.7961C88.1697 19.2201 88.4249 19.5776 88.469 19.9879Z" fill="white"/>
<path fill-rule="evenodd" clip-rule="evenodd" d="M83.4448 21.3025H87.6552C87.7035 21.315 87.7543 21.315 87.8026 21.3025C88.3487 21.0979 88.7314 20.6006 88.7895 20.02C88.743 19.4836 88.4093 19.0146 87.9179 18.7952C87.8687 18.7689 87.8135 18.7557 87.7577 18.7567H83.3487C83.2929 18.7557 83.2377 18.7689 83.1885 18.7952C82.6946 19.0128 82.3582 19.4821 82.3105 20.02C82.3698 20.6022 82.7552 21.0998 83.3039 21.3025C83.35 21.315 83.3987 21.315 83.4448 21.3025ZM87.5783 20.6613H83.5282C83.1629 20.4625 82.9514 20.315 82.9514 20.02C82.9514 19.725 83.227 19.507 83.432 19.3787H87.6744C87.9756 19.5904 88.1486 19.8212 88.1486 20.02C88.1486 20.2188 87.9436 20.4625 87.5783 20.6613Z" fill="#231F20"/>
<path d="M84.5655 5.98933H86.5394L86.6547 11.4272H84.4502L84.5655 5.98933Z" fill="#231F20"/>
<path fill-rule="evenodd" clip-rule="evenodd" d="M84.4504 11.7478H86.6549C86.732 11.7392 86.8041 11.7054 86.86 11.6516C86.9173 11.5884 86.9493 11.5061 86.9497 11.4208L86.8344 5.98291C86.8344 5.89846 86.8004 5.81755 86.7401 5.75843C86.6798 5.69932 86.5983 5.66697 86.5139 5.6687H84.5658C84.4814 5.66697 84.3998 5.69932 84.3396 5.75843C84.2793 5.81755 84.2453 5.89846 84.2453 5.98291L84.13 11.4208C84.1278 11.5066 84.1601 11.5898 84.2197 11.6516C84.2808 11.713 84.3638 11.7476 84.4504 11.7478ZM86.3281 11.1065H84.7772L84.8798 6.30995H86.2256L86.3281 11.1065Z" fill="#231F20"/>
<path d="M78.8629 37.3788H92.2373C92.8425 37.3788 93.3332 37.8697 93.3332 38.4753V40.2452H77.7734V38.4753C77.7734 37.8722 78.2602 37.3823 78.8629 37.3788V37.3788Z" fill="white"/>
<path fill-rule="evenodd" clip-rule="evenodd" d="M77.7726 40.5658H93.3323C93.5093 40.5658 93.6527 40.4223 93.6527 40.2452V38.4753C93.6527 37.6927 93.0186 37.0582 92.2364 37.0582H78.862C78.0823 37.0617 77.4521 37.6952 77.4521 38.4753V40.2452C77.4521 40.4223 77.5956 40.5658 77.7726 40.5658ZM93.0119 39.9246H78.093V38.4753C78.093 38.0493 78.4363 37.7029 78.862 37.6994H92.2364C92.4421 37.6994 92.6393 37.7812 92.7848 37.9267C92.9302 38.0722 93.0119 38.2696 93.0119 38.4753V39.9246Z" fill="#231F20"/>
<rect x="82.3613" y="51.5185" width="6.38282" height="90.5068" fill="#231F20"/>
<path fill-rule="evenodd" clip-rule="evenodd" d="M82.336 142.359H88.7445C88.8317 142.359 88.9153 142.323 88.9757 142.26C89.0362 142.197 89.0684 142.113 89.0649 142.025V51.5185C89.0615 51.3428 88.92 51.2013 88.7445 51.1978H82.336C82.1591 51.1978 82.0156 51.3414 82.0156 51.5185V142.038C82.0156 142.215 82.1591 142.359 82.336 142.359ZM88.4369 141.717H82.6693V51.8391H88.4369V141.717Z" fill="#231F20"/>
<path d="M87.8857 54.3464H83.214C83.037 54.3464 82.8936 54.2029 82.8936 54.0258C82.897 53.8501 83.0384 53.7086 83.214 53.7052H87.8857C88.0627 53.7052 88.2062 53.8487 88.2062 54.0258C88.2062 54.2029 88.0627 54.3464 87.8857 54.3464Z" fill="white"/>
<path d="M87.9111 55.7892H83.1944C83.0175 55.7892 82.874 55.6457 82.874 55.4686C82.874 55.2915 83.0175 55.148 83.1944 55.148H87.9111C88.088 55.148 88.2315 55.2915 88.2315 55.4686C88.2315 55.6457 88.088 55.7892 87.9111 55.7892Z" fill="white"/>
<path d="M87.9305 57.3026H83.1691C82.9935 57.2992 82.852 57.1576 82.8486 56.982C82.8486 56.8049 82.9921 56.6613 83.1691 56.6613H87.9305C88.1075 56.6613 88.251 56.8049 88.251 56.982C88.251 57.1591 88.1075 57.3026 87.9305 57.3026Z" fill="white"/>
<path d="M87.9559 58.8224H83.1495C82.9726 58.8224 82.8291 58.6788 82.8291 58.5017C82.8291 58.3247 82.9726 58.1811 83.1495 58.1811H87.9559C88.1328 58.1811 88.2763 58.3247 88.2763 58.5017C88.2763 58.6788 88.1328 58.8224 87.9559 58.8224Z" fill="white"/>
<path d="M87.9817 60.3742H83.1241C82.9472 60.3742 82.8037 60.2307 82.8037 60.0536C82.8037 59.8765 82.9472 59.733 83.1241 59.733H87.9817C88.1587 59.733 88.3022 59.8765 88.3022 60.0536C88.3022 60.2307 88.1587 60.3742 87.9817 60.3742Z" fill="white"/>
<path d="M88.0076 61.9517H83.0987C82.9218 61.9517 82.7783 61.8082 82.7783 61.6311C82.7783 61.454 82.9218 61.3104 83.0987 61.3104H88.0076C88.1831 61.3139 88.3246 61.4554 88.328 61.6311C88.328 61.8082 88.1846 61.9517 88.0076 61.9517Z" fill="white"/>
<path d="M88.0325 63.5677H83.0724C82.8954 63.5677 82.752 63.4241 82.752 63.247C82.752 63.07 82.8954 62.9264 83.0724 62.9264H88.0325C88.2095 62.9264 88.3529 63.07 88.3529 63.247C88.3529 63.4241 88.2095 63.5677 88.0325 63.5677Z" fill="white"/>
<path d="M88.0584 65.2157H83.047C82.87 65.2157 82.7266 65.0721 82.7266 64.8951C82.7266 64.718 82.87 64.5744 83.047 64.5744H88.0584C88.2354 64.5744 88.3788 64.718 88.3788 64.8951C88.3788 65.0721 88.2354 65.2157 88.0584 65.2157Z" fill="white"/>
<path d="M88.0843 66.8958H83.0216C82.8446 66.8958 82.7012 66.7522 82.7012 66.5752C82.7012 66.3981 82.8446 66.2545 83.0216 66.2545H88.0843C88.2598 66.2579 88.4013 66.3995 88.4047 66.5752C88.4047 66.7522 88.2612 66.8958 88.0843 66.8958Z" fill="white"/>
<path d="M88.1103 68.6143H82.9835C82.8065 68.6143 82.6631 68.4708 82.6631 68.2937C82.6631 68.1166 82.8065 67.9731 82.9835 67.9731H88.1103C88.2872 67.9731 88.4307 68.1166 88.4307 68.2937C88.4307 68.4708 88.2872 68.6143 88.1103 68.6143Z" fill="white"/>
<path d="M88.135 70.365H82.9698C82.7929 70.365 82.6494 70.2214 82.6494 70.0444C82.6494 69.8673 82.7929 69.7237 82.9698 69.7237H88.135C88.312 69.7237 88.4555 69.8673 88.4555 70.0444C88.4555 70.2214 88.312 70.365 88.135 70.365Z" fill="white"/>
<path d="M88.1615 72.1605H82.9386C82.7631 72.1571 82.6216 72.0155 82.6182 71.8399C82.6182 71.6628 82.7616 71.5192 82.9386 71.5192H88.1615C88.3384 71.5192 88.4819 71.6628 88.4819 71.8399C88.4819 72.0169 88.3384 72.1605 88.1615 72.1605Z" fill="white"/>
<path d="M88.1928 73.9881H82.9122C82.7353 73.9881 82.5918 73.8445 82.5918 73.6674C82.5918 73.4904 82.7353 73.3468 82.9122 73.3468H88.1928C88.3683 73.3502 88.5098 73.4918 88.5132 73.6674C88.5132 73.8445 88.3697 73.9881 88.1928 73.9881Z" fill="white"/>
<path d="M88.2192 75.8605H82.881C82.7054 75.8571 82.564 75.7156 82.5605 75.5399C82.5605 75.3628 82.704 75.2193 82.881 75.2193H88.2192C88.3962 75.2193 88.5396 75.3628 88.5396 75.5399C88.5396 75.717 88.3962 75.8605 88.2192 75.8605Z" fill="white"/>
<path d="M88.2505 77.7715H82.8546C82.6776 77.7715 82.5342 77.6279 82.5342 77.4508C82.5342 77.2738 82.6776 77.1302 82.8546 77.1302H88.2505C88.4275 77.1302 88.5709 77.2738 88.5709 77.4508C88.5709 77.6279 88.4275 77.7715 88.2505 77.7715Z" fill="white"/>
<path d="M88.2824 79.7273H82.8224C82.6454 79.7273 82.502 79.5838 82.502 79.4067C82.502 79.2296 82.6454 79.0861 82.8224 79.0861H88.2824C88.4593 79.0861 88.6028 79.2296 88.6028 79.4067C88.5994 79.5823 88.4579 79.7239 88.2824 79.7273Z" fill="white"/>
<path d="M88.3152 81.728H82.7911C82.6142 81.728 82.4707 81.5845 82.4707 81.4074C82.4707 81.2303 82.6142 81.0868 82.7911 81.0868H88.3152C88.4922 81.0868 88.6356 81.2303 88.6356 81.4074C88.6322 81.583 88.4907 81.7246 88.3152 81.728Z" fill="white"/>
<path d="M88.3407 83.7672H82.7589C82.5819 83.7672 82.4385 83.6237 82.4385 83.4466C82.4419 83.2709 82.5834 83.1294 82.7589 83.126H88.3407C88.5176 83.126 88.6611 83.2695 88.6611 83.4466C88.6611 83.6237 88.5176 83.7672 88.3407 83.7672Z" fill="white"/>
<path d="M88.3789 85.8641H82.7267C82.5497 85.8641 82.4062 85.7206 82.4062 85.5435C82.4062 85.3664 82.5497 85.2229 82.7267 85.2229H88.3789C88.5559 85.2229 88.6993 85.3664 88.6993 85.5435C88.6959 85.7191 88.5545 85.8607 88.3789 85.8641Z" fill="white"/>
<path d="M88.4367 88.0059H82.6691C82.4921 88.0059 82.3486 87.8624 82.3486 87.6853C82.3486 87.5082 82.4921 87.3647 82.6691 87.3647H88.4367C88.6136 87.3647 88.7571 87.5082 88.7571 87.6853C88.7537 87.8609 88.6122 88.0025 88.4367 88.0059Z" fill="white"/>
<path d="M88.4367 90.199H82.6691C82.4921 90.199 82.3486 90.0555 82.3486 89.8784C82.3486 89.7013 82.4921 89.5578 82.6691 89.5578H88.4367C88.6136 89.5578 88.7571 89.7013 88.7571 89.8784C88.7571 90.0555 88.6136 90.199 88.4367 90.199Z" fill="white"/>
<path d="M88.475 92.4434H82.6241C82.4486 92.44 82.3071 92.2984 82.3037 92.1228C82.3037 91.9457 82.4472 91.8022 82.6241 91.8022H88.475C88.652 91.8022 88.7955 91.9457 88.7955 92.1228C88.7955 92.2999 88.652 92.4434 88.475 92.4434Z" fill="white"/>
<path d="M88.5133 94.7391H82.5919C82.4149 94.7391 82.2715 94.5955 82.2715 94.4185C82.2715 94.2414 82.4149 94.0978 82.5919 94.0978H88.5133C88.6903 94.0978 88.8337 94.2414 88.8337 94.4185C88.8337 94.5955 88.6903 94.7391 88.5133 94.7391Z" fill="white"/>
<rect x="82.5537" y="96.4577" width="5.99831" height="0.641256" fill="white"/>
<rect x="82.5156" y="98.8752" width="6.07521" height="0.641256" fill="white"/>
<rect x="82.4766" y="101.35" width="6.1457" height="0.641256" fill="white"/>
<rect x="82.4385" y="103.89" width="6.22901" height="0.641256" fill="white"/>
<rect x="82.3994" y="106.493" width="6.30592" height="0.641256" fill="white"/>
<rect x="82.3555" y="109.167" width="6.38923" height="0.641256" fill="white"/>
<rect x="82.3164" y="111.918" width="6.47894" height="0.641256" fill="white"/>
<rect x="82.2715" y="114.733" width="6.56225" height="0.641256" fill="white"/>
<rect x="82.2266" y="117.632" width="6.65197" height="0.641256" fill="white"/>
<rect x="82.1816" y="120.607" width="6.7481" height="0.641256" fill="white"/>
<rect x="82.1309" y="123.673" width="6.83782" height="0.641256" fill="white"/>
<rect x="82.0791" y="126.821" width="6.94035" height="0.641256" fill="white"/>
<rect x="82.0342" y="130.059" width="7.03648" height="0.641256" fill="white"/>
<rect x="81.9834" y="133.394" width="7.13901" height="0.641256" fill="white"/>
<rect x="81.9258" y="136.831" width="7.24796" height="0.641256" fill="white"/>
<path d="M82.6691 142.025C85.0146 111.803 85.1428 51.5185 85.1428 51.5185H82.5281C78.8304 121.249 75.2802 138.088 74.0049 142.025H82.6691Z" fill="#E7816B"/>
<path fill-rule="evenodd" clip-rule="evenodd" d="M73.9919 142.32H82.6689C82.8126 142.312 82.9291 142.201 82.9445 142.057C85.2643 112.168 85.4246 52.1341 85.4246 51.5313C85.4232 51.4549 85.3935 51.3818 85.3412 51.3261C85.2854 51.2694 85.2093 51.2371 85.1298 51.2363H82.5151C82.3597 51.2396 82.2335 51.363 82.2267 51.5185C78.5547 120.704 75.0493 137.799 73.7163 141.936C73.6867 142.024 73.701 142.122 73.7548 142.198C73.8106 142.274 73.8982 142.319 73.9919 142.32ZM82.3934 141.73H74.402L74.3892 141.717C75.8119 136.953 79.2276 118.902 82.7971 51.8135H84.835C84.8222 56.4305 84.5915 112.861 82.3934 141.73Z" fill="#231F20"/>
<path d="M97.1076 142.025C95.8259 138.082 92.2821 121.249 88.5844 51.5185H85.9697C85.9697 51.5185 86.1043 111.797 88.4498 142.025H97.1076Z" fill="#E7816B"/>
<path fill-rule="evenodd" clip-rule="evenodd" d="M88.4364 142.32H97.1071C97.1994 142.315 97.2832 142.265 97.3313 142.186C97.3873 142.11 97.404 142.012 97.3762 141.923C96.0368 137.799 92.5378 120.704 88.8658 51.5056C88.8589 51.3478 88.7289 51.2233 88.571 51.2235H85.9563C85.8787 51.2246 85.8048 51.2569 85.7513 51.3133C85.699 51.369 85.6693 51.4421 85.668 51.5185C85.668 52.1213 85.8218 112.156 88.148 142.045C88.1549 142.199 88.282 142.32 88.4364 142.32ZM96.7097 141.717H88.7184C86.5139 112.861 86.2768 56.4305 86.264 51.8006H88.3083C91.8713 118.889 95.2935 136.94 96.7097 141.717Z" fill="#231F20"/>
<path d="M77.773 48.6521H93.3327V50.4219C93.3327 51.0275 92.8421 51.5185 92.2369 51.5185H78.8624C78.2572 51.5185 77.7666 51.0275 77.7666 50.4219V48.6521L77.773 48.6521Z" fill="white"/>
<path fill-rule="evenodd" clip-rule="evenodd" d="M78.862 51.8391H92.2364C93.0186 51.8391 93.6527 51.2046 93.6527 50.4219V48.6521C93.6527 48.475 93.5093 48.3314 93.3323 48.3314H77.7726C77.5956 48.3314 77.4521 48.475 77.4521 48.6521V50.4219C77.4521 51.2021 78.0823 51.8356 78.862 51.8391ZM78.093 50.4219V48.9727H93.0119V50.4219C93.0119 50.8505 92.6647 51.1978 92.2364 51.1978H78.862C78.4363 51.1943 78.093 50.848 78.093 50.4219Z" fill="#231F20"/>
<rect x="75.6709" y="38.8152" width="19.7573" height="10.818" rx="3.18" fill="#E7816B"/>
<path fill-rule="evenodd" clip-rule="evenodd" d="M77.7155 49.9218H93.3906C94.6789 49.9218 95.7232 48.8767 95.7232 47.5876V40.8544C95.7232 39.5653 94.6789 38.5202 93.3906 38.5202H77.7155C76.4272 38.5202 75.3828 39.5653 75.3828 40.8544V47.5876C75.3828 48.8767 76.4272 49.9218 77.7155 49.9218ZM76.4788 39.6252C76.8071 39.2979 77.2521 39.1149 77.7155 39.1166H93.3906C94.3518 39.1166 95.133 39.8926 95.1401 40.8544V47.594C95.1401 48.5608 94.3568 49.3446 93.3906 49.3446H77.7155C76.7493 49.3446 75.966 48.5608 75.966 47.594V40.8608C75.966 40.3971 76.1505 39.9525 76.4788 39.6252Z" fill="#231F20"/>
<path d="M96.018 41.874H75.088C74.911 41.874 74.7676 41.7304 74.7676 41.5534C74.7676 41.3763 74.911 41.2327 75.088 41.2327H96.018C96.195 41.2327 96.3384 41.3763 96.3384 41.5534C96.3384 41.7304 96.195 41.874 96.018 41.874Z" fill="#231F20"/>
<path d="M96.018 44.5416H75.088C74.911 44.5416 74.7676 44.3981 74.7676 44.221C74.7676 44.0439 74.911 43.9004 75.088 43.9004H96.018C96.1935 43.9038 96.335 44.0453 96.3384 44.221C96.3384 44.3981 96.195 44.5416 96.018 44.5416Z" fill="#231F20"/>
<path d="M96.018 47.2092H75.088C74.911 47.2092 74.7676 47.0657 74.7676 46.8886C74.7676 46.7115 74.911 46.568 75.088 46.568H96.018C96.1935 46.5714 96.335 46.713 96.3384 46.8886C96.3384 47.0657 96.195 47.2092 96.018 47.2092Z" fill="#231F20"/>
<path d="M124.497 92.5588C124.32 92.5588 124.177 92.4153 124.177 92.2382V81.1894C124.177 81.0123 124.32 80.8687 124.497 80.8687C124.674 80.8687 124.818 81.0123 124.818 81.1894V92.2382C124.818 92.4153 124.674 92.5588 124.497 92.5588Z" fill="#231F20"/>
<rect x="121.209" y="93.758" width="13.1565" height="48.2673" fill="white"/>
<path fill-rule="evenodd" clip-rule="evenodd" d="M121.209 142.359H134.366C134.453 142.359 134.536 142.323 134.597 142.26C134.657 142.197 134.69 142.113 134.686 142.025V93.758C134.686 93.5809 134.543 93.4373 134.366 93.4373H121.209C121.032 93.4373 120.889 93.5809 120.889 93.758V142.038C120.889 142.215 121.032 142.359 121.209 142.359ZM134.064 141.717H121.549L121.53 94.0786H134.064V141.717Z" fill="#231F20"/>
<rect x="121.209" y="91.2571" width="6.57507" height="2.5009" fill="#231F20"/>
<path fill-rule="evenodd" clip-rule="evenodd" d="M121.209 94.0786H127.784C127.961 94.0786 128.105 93.9351 128.105 93.758V91.2571C128.105 91.08 127.961 90.9365 127.784 90.9365H121.209C121.032 90.9365 120.889 91.08 120.889 91.2571V93.758C120.889 93.9351 121.032 94.0786 121.209 94.0786ZM127.464 93.4374H121.53V91.5777H127.464V93.4374Z" fill="#231F20"/>
<rect x="133.392" y="48.1711" width="39.4632" height="93.8542" fill="white"/>
<path fill-rule="evenodd" clip-rule="evenodd" d="M133.392 47.5299H172.855C173.209 47.5299 173.496 47.817 173.496 48.1711V142.025C173.496 142.379 173.209 142.667 172.855 142.667H133.392C133.038 142.667 132.751 142.379 132.751 142.025V48.1711C132.751 47.817 133.038 47.5299 133.392 47.5299ZM172.855 142.025V48.1711H133.392V142.025H172.855Z" fill="#231F20"/>
<rect x="133.392" y="55.1672" width="39.4632" height="0.641256" fill="#D1D3D4"/>
<rect x="133.392" y="62.7212" width="39.4632" height="0.641256" fill="#D1D3D4"/>
<rect x="133.392" y="70.2816" width="39.4632" height="0.641256" fill="#D1D3D4"/>
<rect x="133.392" y="77.8356" width="39.4632" height="0.641256" fill="#D1D3D4"/>
<rect x="133.392" y="85.396" width="39.4632" height="0.641256" fill="#D1D3D4"/>
<rect x="133.392" y="92.95" width="39.4632" height="0.641256" fill="#D1D3D4"/>
<rect x="133.392" y="100.51" width="39.4632" height="0.641256" fill="#D1D3D4"/>
<rect x="133.392" y="108.064" width="39.4632" height="0.641256" fill="#D1D3D4"/>
<rect x="133.392" y="115.618" width="39.4632" height="0.641256" fill="#D1D3D4"/>
<rect x="133.392" y="123.179" width="39.4632" height="0.641256" fill="#D1D3D4"/>
<rect x="133.392" y="130.733" width="39.4632" height="0.641256" fill="#D1D3D4"/>
<rect x="143.806" y="41.1045" width="18.6358" height="100.921" fill="white"/>
<path fill-rule="evenodd" clip-rule="evenodd" d="M143.806 142.359H162.442C162.529 142.359 162.612 142.323 162.673 142.26C162.733 142.197 162.765 142.113 162.762 142.025V41.1045C162.762 40.9274 162.619 40.7839 162.442 40.7839H143.806C143.629 40.7839 143.485 40.9274 143.485 41.1045V142.038C143.485 142.215 143.629 142.359 143.806 142.359ZM162.134 141.717H144.126V41.4251H162.134V141.717Z" fill="#231F20"/>
<path d="M162.442 51.9417H143.806C143.629 51.9417 143.485 51.7982 143.485 51.6211C143.485 51.444 143.629 51.3004 143.806 51.3004H162.442C162.619 51.3004 162.762 51.444 162.762 51.6211C162.762 51.7982 162.619 51.9417 162.442 51.9417Z" fill="#231F20"/>
<path d="M162.442 59.47H143.806C143.629 59.47 143.485 59.3265 143.485 59.1494C143.485 58.9723 143.629 58.8288 143.806 58.8288H162.442C162.619 58.8288 162.762 58.9723 162.762 59.1494C162.762 59.3265 162.619 59.47 162.442 59.47Z" fill="#231F20"/>
<path d="M162.442 67.024H143.806C143.629 67.024 143.485 66.8805 143.485 66.7034C143.485 66.5263 143.629 66.3828 143.806 66.3828H162.442C162.619 66.3828 162.762 66.5263 162.762 66.7034C162.762 66.8805 162.619 67.024 162.442 67.024Z" fill="#231F20"/>
<path d="M162.442 74.5844H143.806C143.629 74.5844 143.485 74.4409 143.485 74.2638C143.485 74.0867 143.629 73.9432 143.806 73.9432H162.442C162.619 73.9432 162.762 74.0867 162.762 74.2638C162.762 74.4409 162.619 74.5844 162.442 74.5844Z" fill="#231F20"/>
<path d="M162.442 82.1384H143.806C143.629 82.1384 143.485 81.9949 143.485 81.8178C143.485 81.6407 143.629 81.4972 143.806 81.4972H162.442C162.619 81.4972 162.762 81.6407 162.762 81.8178C162.762 81.9949 162.619 82.1384 162.442 82.1384Z" fill="#231F20"/>
<path d="M162.442 89.6988H143.806C143.629 89.6988 143.485 89.5553 143.485 89.3782C143.485 89.2011 143.629 89.0576 143.806 89.0576H162.442C162.619 89.0576 162.762 89.2011 162.762 89.3782C162.762 89.5553 162.619 89.6988 162.442 89.6988Z" fill="#231F20"/>
<path d="M162.442 97.2528H143.806C143.629 97.2528 143.485 97.1093 143.485 96.9322C143.485 96.7551 143.629 96.6116 143.806 96.6116H162.442C162.619 96.6116 162.762 96.7551 162.762 96.9322C162.762 97.1093 162.619 97.2528 162.442 97.2528Z" fill="#231F20"/>
<path d="M162.442 104.807H143.806C143.629 104.807 143.485 104.663 143.485 104.486C143.485 104.309 143.629 104.166 143.806 104.166H162.442C162.619 104.166 162.762 104.309 162.762 104.486C162.762 104.663 162.619 104.807 162.442 104.807Z" fill="#231F20"/>
<path d="M162.442 112.367H143.806C143.629 112.367 143.485 112.224 143.485 112.047C143.485 111.87 143.629 111.726 143.806 111.726H162.442C162.619 111.726 162.762 111.87 162.762 112.047C162.762 112.224 162.619 112.367 162.442 112.367Z" fill="#231F20"/>
<path d="M162.442 119.915H143.806C143.629 119.915 143.485 119.771 143.485 119.594C143.485 119.417 143.629 119.274 143.806 119.274H162.442C162.619 119.274 162.762 119.417 162.762 119.594C162.762 119.771 162.619 119.915 162.442 119.915Z" fill="#231F20"/>
<path d="M162.442 127.482H143.806C143.629 127.482 143.485 127.338 143.485 127.161C143.485 126.984 143.629 126.84 143.806 126.84H162.442C162.619 126.84 162.762 126.984 162.762 127.161C162.762 127.338 162.619 127.482 162.442 127.482Z" fill="#231F20"/>
<rect x="146.542" y="38.1098" width="13.1565" height="3.02673" fill="#231F20"/>
<path fill-rule="evenodd" clip-rule="evenodd" d="M146.542 41.4636H159.699C159.876 41.4636 160.019 41.32 160.019 41.143V38.1098C160.019 37.9327 159.876 37.7892 159.699 37.7892H146.542C146.367 37.7926 146.225 37.9342 146.222 38.1098V41.143C146.225 41.3186 146.367 41.4602 146.542 41.4636ZM159.378 40.8223H146.882L146.863 38.4304H159.378V40.8223Z" fill="#231F20"/>
<rect x="124.605" y="100.805" width="2.42239" height="0.641256" fill="#D1D3D4"/>
<rect x="127.938" y="108.077" width="2.42239" height="0.641256" fill="#D1D3D4"/>
<rect x="124.305" y="115.349" width="2.42239" height="0.641256" fill="#D1D3D4"/>
<rect x="125.516" y="126.257" width="2.42239" height="0.641256" fill="#D1D3D4"/>
<rect x="103.112" y="134.959" width="72.4604" height="7.06664" fill="#E7816B"/>
<path fill-rule="evenodd" clip-rule="evenodd" d="M103.112 142.32H175.592C175.755 142.32 175.887 142.188 175.887 142.025V134.971C175.887 134.894 175.855 134.819 175.8 134.765C175.744 134.711 175.669 134.681 175.592 134.683H103.112C102.952 134.683 102.821 134.811 102.817 134.971V142.025C102.821 142.187 102.951 142.317 103.112 142.32ZM175.284 141.717H103.407V135.241H175.284V141.717Z" fill="#231F20"/>
<path d="M122.574 130.72C122.574 130.72 126.829 126.129 139.345 126.129C151.861 126.129 156.11 130.72 156.11 130.72H122.574Z" fill="#E7816B"/>
<path fill-rule="evenodd" clip-rule="evenodd" d="M122.574 131.015H156.11C156.226 131.015 156.331 130.947 156.379 130.842C156.424 130.734 156.404 130.61 156.328 130.521C156.148 130.329 151.842 125.84 139.345 125.84C126.849 125.84 122.536 130.329 122.363 130.521C122.281 130.607 122.258 130.733 122.305 130.842C122.356 130.945 122.459 131.012 122.574 131.015ZM155.322 130.431H123.363C124.888 129.264 129.605 126.424 139.345 126.424C149.086 126.424 153.796 129.264 155.322 130.431Z" fill="#231F20"/>
<path fill-rule="evenodd" clip-rule="evenodd" d="M125.977 135.305H152.707C152.81 135.306 152.907 135.258 152.97 135.177L156.052 130.938C156.121 130.839 156.129 130.71 156.074 130.603C156.019 130.496 155.91 130.427 155.79 130.425H122.895C122.775 130.427 122.665 130.496 122.61 130.603C122.555 130.71 122.564 130.839 122.632 130.938L125.721 135.177C125.78 135.259 125.876 135.307 125.977 135.305ZM152.521 134.664H126.144L123.523 131.066H155.136L152.521 134.664Z" fill="#231F20"/>
<path d="M131.937 135.164L128.733 131.246L125.881 135.151L125.362 134.773L128.458 130.534C128.515 130.453 128.608 130.403 128.708 130.399C128.806 130.403 128.899 130.447 128.964 130.521L132.45 134.76L131.937 135.164Z" fill="#231F20"/>
<path d="M138.903 135.164L135.699 131.246L132.847 135.151L132.328 134.773L135.423 130.534C135.481 130.453 135.574 130.403 135.673 130.399C135.772 130.402 135.865 130.446 135.93 130.521L139.416 134.76L138.903 135.164Z" fill="#231F20"/>
<path d="M145.869 135.164L142.665 131.246L139.813 135.151L139.294 134.773L142.389 130.534C142.447 130.453 142.539 130.403 142.639 130.399C142.738 130.401 142.832 130.445 142.895 130.521L146.382 134.76L145.869 135.164Z" fill="#231F20"/>
<path d="M152.836 135.164L149.631 131.246L146.754 135.151L146.241 134.773L149.33 130.534C149.389 130.453 149.481 130.404 149.58 130.399C149.679 130.402 149.772 130.446 149.836 130.521L153.323 134.76L152.836 135.164Z" fill="#231F20"/>
<path d="M111.084 142.038H110.443C110.583 139.741 110.6 137.437 110.495 135.138C110.542 135.24 110.645 135.305 110.757 135.305V134.664L111.007 134.773C111.116 134.856 111.36 135.113 111.084 142.038Z" fill="#231F20"/>
<path d="M120.594 142.038H119.953C120.096 139.741 120.113 137.437 120.004 135.138C120.054 135.241 120.159 135.306 120.274 135.305V134.664L120.517 134.773C120.62 134.856 120.87 135.113 120.594 142.038Z" fill="#231F20"/>
<path d="M130.092 142.038H129.451C129.594 139.741 129.611 137.437 129.502 135.138C129.552 135.241 129.657 135.306 129.772 135.305V134.664L130.015 134.773C130.13 134.856 130.374 135.113 130.092 142.038Z" fill="#231F20"/>
<path d="M139.602 142.038H138.961C139.104 139.741 139.121 137.437 139.012 135.138C139.062 135.241 139.167 135.306 139.281 135.305V134.664L139.525 134.773C139.634 134.856 139.877 135.113 139.602 142.038Z" fill="#231F20"/>
<path d="M149.106 142.038H148.465C148.605 139.741 148.624 137.438 148.523 135.138C148.567 135.243 148.672 135.309 148.785 135.305V134.664L149.035 134.773C149.138 134.856 149.381 135.113 149.106 142.038Z" fill="#231F20"/>
<path d="M158.61 142.038H157.969C158.112 139.741 158.131 137.438 158.026 135.138C158.071 135.243 158.176 135.309 158.289 135.305V134.664L158.539 134.773C158.642 134.856 158.885 135.113 158.61 142.038Z" fill="#231F20"/>
<path d="M168.113 142.038H167.472C167.615 139.741 167.634 137.438 167.529 135.138C167.577 135.24 167.68 135.305 167.792 135.305V134.664L168.042 134.773C168.145 134.856 168.388 135.113 168.113 142.038Z" fill="#231F20"/>
<rect x="103.112" y="136.761" width="72.4604" height="0.641256" fill="#231F20"/>
<path d="M181.359 142.628H0.640735C0.463771 142.628 0.320312 142.485 0.320312 142.307C0.320312 142.13 0.463771 141.987 0.640735 141.987H181.359C181.536 141.987 181.679 142.13 181.679 142.307C181.679 142.485 181.536 142.628 181.359 142.628Z" fill="#231F20"/>
</svg>
